<svg width="28" height="28" viewBox="0 0 28 28" fill="none" xmlns="http://www.w3.org/2000/svg">
<path d="M10.5388 20.9684C14.507 19.8763 16.2053 16.7396 15.0865 12.5109L13.5814 6.763C13.1708 5.21928 12.1728 4.66092 10.6354 5.07148L2.65889 7.23104C1.11348 7.65802 0.542007 8.64337 0.952505 10.2199L2.44961 15.9595C3.55233 20.1802 6.57069 22.0523 10.5388 20.9684ZM9.78227 18.0288C8.09998 18.4722 6.46606 17.8892 5.60482 16.4933C5.43579 16.2388 5.58067 15.9842 5.90263 16.0089C6.97315 16.0992 8.2449 15.9103 9.16246 15.6558C10.0639 15.4176 11.2391 14.9414 12.1325 14.3091C12.3981 14.112 12.6638 14.2516 12.6477 14.5883C12.5913 16.2306 11.4725 17.5526 9.78227 18.0288ZM5.72556 12.6341C5.12188 12.8064 5.04139 13.217 4.78382 13.2581C4.66309 13.2827 4.5182 13.1431 4.44576 12.905C4.25259 12.2071 4.68724 11.4598 5.37945 11.2874C6.07971 11.115 6.79607 11.5337 6.97315 12.2071C7.04559 12.4534 6.9812 12.6423 6.85241 12.6915C6.5546 12.7982 6.27288 12.4862 5.72556 12.6341ZM10.6354 11.2792C10.0317 11.4598 9.95124 11.8622 9.69367 11.895C9.57299 11.9196 9.42807 11.7801 9.35567 11.5501C9.16246 10.8604 9.5971 10.105 10.2893 9.93253C10.9977 9.74368 11.7059 10.1707 11.883 10.8522C11.9555 11.1067 11.8911 11.2874 11.7623 11.3367C11.4725 11.4434 11.1828 11.1232 10.6354 11.2792ZM26.1539 9.35774L18.1854 7.18177C16.7687 6.79584 15.7707 7.22283 15.3602 8.50377L15.2636 8.85686L16.149 12.2235C17.0343 15.5819 16.31 18.423 14.2495 20.2623C15.0382 21.5925 16.4388 22.5861 18.29 23.0869C22.2421 24.1626 25.2444 22.2904 26.3551 18.0699L27.8764 12.3384C28.2788 10.7865 27.6993 9.77652 26.1539 9.35774ZM18.0405 14.3337C17.4851 14.1942 17.1551 13.6194 17.3081 13.0364C17.4609 12.4698 18.0244 12.1331 18.5798 12.2892C19.1351 12.4452 19.4652 13.0282 19.3203 13.5947C19.1674 14.1613 18.6039 14.4898 18.0405 14.3337ZM22.7653 15.6229C22.2179 15.4751 21.8879 14.8921 22.0408 14.3173C22.1857 13.7508 22.7492 13.4223 23.3046 13.5783C23.868 13.7179 24.1899 14.3009 24.0451 14.8757C23.8921 15.4423 23.3287 15.7789 22.7653 15.6229ZM19.3766 18.776C18.5396 18.5379 17.7347 18.5297 16.7044 18.7596C16.3824 18.8335 16.1893 18.5625 16.3583 18.2916C17.0505 17.183 18.451 16.7232 19.8113 17.1092C21.2199 17.4704 22.1777 18.5707 22.2259 19.8845C22.2421 20.213 21.9443 20.3526 21.7028 20.1309C20.906 19.3919 20.2218 18.9977 19.3766 18.776Z" fill="#054581"/>
</svg>
